<svg width="188" height="24" viewBox="0 0 188 24" fill="none" xmlns="http://www.w3.org/2000/svg">
<g id="pindah-memilih">
<g id="memilih">
<g id="Group">
<g id="Group_2">
<g id="Group_3">
<path id="Vector" d="M107.143 23.6119V12.0906L103.847 20.2054H100.087L96.8261 12.1252V23.6119H92.6787V1.73947L96.0437 0.569336L101.964 14.6109L107.883 0.569336L111.29 1.73947V23.6119H107.143Z" fill="#904A4A"/>
</g>
</g>
</g>
<g id="Group_4">
<g id="Group_5">
<g id="Group_6">
<path id="Vector_2" d="M120.752 23.9999C119.758 23.9999 118.836 23.8234 117.982 23.4737C117.133 23.1189 116.393 22.5875 115.767 21.8812C115.144 21.1715 114.647 20.2957 114.278 19.2571C113.913 18.2151 113.731 16.9965 113.731 15.6013C113.731 14.4208 113.913 13.2922 114.278 12.2155C114.647 11.1406 115.068 10.3184 115.538 9.75065C116.248 8.85575 116.958 8.19971 117.664 7.78428C118.374 7.36885 119.308 7.16113 120.468 7.16113C121.271 7.16113 122.033 7.37577 122.753 7.80505C123.477 8.23087 124.098 8.7917 124.615 9.48755C125.137 10.1851 125.55 10.9589 125.855 11.807C126.163 12.6569 126.319 13.5086 126.319 14.3619V17.0207H117.989C118.178 17.8706 118.497 18.5751 118.945 19.1325C119.391 19.6864 119.959 19.9633 120.648 19.9633C120.975 19.9633 121.252 19.9045 121.479 19.7833C121.704 19.6639 121.912 19.4977 122.102 19.2848C122.291 19.0736 122.485 18.8192 122.684 18.5232C122.886 18.2289 123.129 17.9035 123.411 17.5469L126.423 20.3511C125.974 20.8963 125.55 21.3879 125.149 21.8259C124.747 22.2603 124.326 22.6429 123.888 22.9752C123.454 23.3076 122.981 23.562 122.469 23.7368C121.96 23.9117 121.389 23.9999 120.752 23.9999ZM121.991 12.8733C121.543 11.7378 120.963 11.17 120.253 11.17C119.852 11.17 119.495 11.3362 119.187 11.6686C118.883 11.9974 118.623 12.399 118.412 12.8733H121.991Z" fill="#904A4A"/>
</g>
</g>
</g>
<g id="Group_7">
<g id="Group_8">
<g id="Group_9">
<path id="Vector_3" d="M129.936 23.6126V13.2269C129.936 12.8253 129.853 12.3718 129.687 11.8629C129.521 11.3557 129.365 10.8641 129.223 10.3881L128.621 8.40787L132.554 7.12695L132.983 8.4771C134.091 7.60124 135.2 7.16157 136.313 7.16157C136.646 7.16157 136.94 7.18061 137.2 7.21696C137.457 7.25504 137.715 7.32082 137.975 7.41775C138.238 7.51123 138.51 7.65836 138.792 7.86088C139.078 8.05994 139.398 8.31093 139.754 8.61558L140.322 9.1141L140.848 8.6502C141.203 8.34555 141.522 8.09456 141.804 7.8955C142.089 7.69298 142.361 7.53892 142.621 7.4316C142.884 7.32601 143.144 7.25504 143.403 7.21696C143.661 7.18061 143.957 7.16157 144.29 7.16157C145.138 7.16157 146.007 7.40045 146.893 7.87473C147.779 8.34555 148.6 9.18334 149.358 10.3881C149.948 11.3574 150.315 12.2333 150.459 13.0122C150.601 13.7929 150.673 14.622 150.673 15.4979V23.6126H146.491V15.0686C146.491 14.764 146.45 14.3935 146.367 13.9539C146.284 13.5159 146.152 13.1022 145.972 12.7145C145.795 12.3233 145.565 11.9858 145.28 11.7036C144.997 11.418 144.644 11.2743 144.22 11.2743C143.794 11.2743 143.462 11.3574 143.223 11.5236C142.988 11.6898 142.804 11.9044 142.676 12.1675C142.546 12.4272 142.463 12.711 142.427 13.0192C142.394 13.3238 142.379 13.6181 142.379 13.8985V23.6126H138.19V13.8985C138.19 13.6181 138.165 13.3238 138.12 13.0192C138.074 12.711 137.985 12.4272 137.857 12.1675C137.727 11.9044 137.539 11.6898 137.29 11.5236C137.04 11.3574 136.715 11.2743 136.313 11.2743C135.912 11.2743 135.616 11.3817 135.427 11.5928C135.237 11.8057 135.013 12.0775 134.755 12.4099C134.496 12.7664 134.326 13.1628 134.243 13.6008C134.16 14.0352 134.118 14.5251 134.118 15.0686V23.6126H129.936Z" fill="#904A4A"/>
</g>
</g>
</g>
<g id="Group_10">
<g id="Group_11">
<g id="Group_12">
<path id="Vector_4" d="M157.867 23.6119H153.719V7.65936H157.867V23.6119ZM153.006 3.15886C153.006 2.42493 153.252 1.81217 153.747 1.31711C154.245 0.818595 154.862 0.569336 155.596 0.569336C156.305 0.569336 156.915 0.818595 157.424 1.31711C157.931 1.81217 158.185 2.42493 158.185 3.15886C158.185 3.88932 157.931 4.50208 157.424 5.0006C156.915 5.49912 156.305 5.74838 155.596 5.74838C154.862 5.74838 154.245 5.49912 153.747 5.0006C153.252 4.50208 153.006 3.88932 153.006 3.15886Z" fill="#904A4A"/>
</g>
</g>
</g>
<g id="Group_13">
<g id="Group_14">
<g id="Group_15">
<path id="Vector_5" d="M160.843 23.612V1.10254H164.921V23.612H160.843Z" fill="#904A4A"/>
</g>
</g>
</g>
<g id="Group_16">
<g id="Group_17">
<g id="Group_18">
<path id="Vector_6" d="M172.329 23.6119H168.181V7.65936H172.329V23.6119ZM167.468 3.15886C167.468 2.42493 167.714 1.81217 168.209 1.31711C168.708 0.818595 169.324 0.569336 170.058 0.569336C170.767 0.569336 171.377 0.818595 171.886 1.31711C172.393 1.81217 172.647 2.42493 172.647 3.15886C172.647 3.88932 172.393 4.50208 171.886 5.0006C171.377 5.49912 170.767 5.74838 170.058 5.74838C169.324 5.74838 168.708 5.49912 168.209 5.0006C167.714 4.50208 167.468 3.88932 167.468 3.15886Z" fill="#904A4A"/>
</g>
</g>
</g>
<g id="Group_19">
<g id="Group_20">
<g id="Group_21">
<path id="Vector_7" d="M175.305 23.612V1.10254H179.452V8.12333C180.02 7.86022 180.474 7.65943 180.816 7.52095C181.157 7.37901 181.623 7.30631 182.215 7.30631C183.046 7.30631 183.809 7.43613 184.507 7.69405C185.203 7.95369 185.805 8.35527 186.314 8.8988C186.821 9.44405 187.216 10.1434 187.498 10.9967C187.783 11.8466 187.927 12.8627 187.927 14.0432V23.612H183.78V14.1471C183.78 13.3906 183.685 12.7537 183.496 12.2361C183.305 11.7151 182.88 11.4537 182.215 11.4537C181.72 11.4537 181.296 11.5437 180.941 11.7237C180.584 11.9003 180.3 12.1167 180.089 12.3746C179.876 12.6342 179.717 12.9181 179.612 13.2262C179.504 13.5309 179.452 13.8268 179.452 14.1125V23.612H175.305Z" fill="#904A4A"/>
</g>
</g>
</g>
<g id="Group_22">
<g id="Group_23">
<g id="Group_24">
<path id="Vector_8" d="M106.464 23.0426V11.5213L103.168 19.636H99.4085L96.1474 11.5559V23.0426H92V1.17013L95.365 0L101.285 14.0416L107.205 0L110.611 1.17013V23.0426H106.464Z" fill="#BF002A"/>
</g>
</g>
</g>
<g id="Group_25">
<g id="Group_26">
<g id="Group_27">
<path id="Vector_9" d="M120.073 23.4306C119.079 23.4306 118.157 23.254 117.303 22.9044C116.454 22.5495 115.714 22.0181 115.088 21.3119C114.465 20.6022 113.968 19.7263 113.599 18.6878C113.234 17.6457 113.052 16.4271 113.052 15.032C113.052 13.8515 113.234 12.7229 113.599 11.6462C113.968 10.5713 114.389 9.74907 114.859 9.18132C115.569 8.28641 116.279 7.63037 116.985 7.21494C117.695 6.79951 118.629 6.5918 119.789 6.5918C120.592 6.5918 121.354 6.80644 122.074 7.23572C122.798 7.66153 123.419 8.22236 123.937 8.91821C124.458 9.61579 124.871 10.3895 125.176 11.2377C125.484 12.0876 125.64 12.9392 125.64 13.7926V16.4514H117.31C117.499 17.3013 117.818 18.0058 118.266 18.5631C118.712 19.117 119.28 19.394 119.969 19.394C120.296 19.394 120.573 19.3351 120.8 19.214C121.025 19.0945 121.233 18.9284 121.423 18.7155C121.612 18.5043 121.806 18.2498 122.005 17.9538C122.207 17.6596 122.45 17.3342 122.732 16.9776L125.744 19.7817C125.295 20.327 124.871 20.8186 124.47 21.2565C124.068 21.691 123.647 22.0735 123.21 22.4059C122.775 22.7382 122.303 22.9927 121.79 23.1675C121.281 23.3423 120.71 23.4306 120.073 23.4306ZM121.312 12.304C120.864 11.1685 120.284 10.6007 119.575 10.6007C119.173 10.6007 118.816 10.7669 118.508 11.0992C118.204 11.4281 117.944 11.8297 117.733 12.304H121.312Z" fill="#BF002A"/>
</g>
</g>
</g>
<g id="Group_28">
<g id="Group_29">
<g id="Group_30">
<path id="Vector_10" d="M129.257 23.0423V12.6566C129.257 12.255 129.174 11.8015 129.008 11.2926C128.842 10.7854 128.686 10.2938 128.544 9.81778L127.942 7.83755L131.875 6.55664L132.304 7.90679C133.412 7.03092 134.521 6.59126 135.634 6.59126C135.967 6.59126 136.261 6.6103 136.521 6.64665C136.778 6.68473 137.036 6.75051 137.296 6.84744C137.559 6.94091 137.831 7.08805 138.113 7.29057C138.399 7.48963 138.719 7.74062 139.075 8.04527L139.643 8.54379L140.169 8.07989C140.524 7.77524 140.843 7.52425 141.125 7.32519C141.411 7.12267 141.682 6.96861 141.942 6.86129C142.205 6.7557 142.465 6.68473 142.724 6.64665C142.982 6.6103 143.278 6.59126 143.611 6.59126C144.459 6.59126 145.328 6.83013 146.214 7.30442C147.1 7.77524 147.921 8.61302 148.679 9.81778C149.269 10.7871 149.636 11.663 149.78 12.4419C149.922 13.2226 149.994 14.0517 149.994 14.9276V23.0423H145.812V14.4983C145.812 14.1936 145.771 13.8232 145.688 13.3836C145.605 12.9456 145.473 12.5319 145.293 12.1442C145.117 11.753 144.886 11.4155 144.601 11.1333C144.319 10.8477 143.965 10.704 143.541 10.704C143.116 10.704 142.783 10.7871 142.544 10.9533C142.309 11.1195 142.125 11.3341 141.997 11.5972C141.867 11.8568 141.784 12.1407 141.748 12.4488C141.715 12.7535 141.7 13.0478 141.7 13.3282V23.0423H137.511V13.3282C137.511 13.0478 137.486 12.7535 137.441 12.4488C137.395 12.1407 137.306 11.8568 137.178 11.5972C137.048 11.3341 136.86 11.1195 136.611 10.9533C136.361 10.7871 136.036 10.704 135.634 10.704C135.233 10.704 134.937 10.8113 134.748 11.0225C134.558 11.2354 134.334 11.5072 134.076 11.8395C133.817 12.1961 133.647 12.5925 133.564 13.0304C133.481 13.4649 133.439 13.9548 133.439 14.4983V23.0423H129.257Z" fill="#BF002A"/>
</g>
</g>
</g>
<g id="Group_31">
<g id="Group_32">
<g id="Group_33">
<path id="Vector_11" d="M157.188 23.0426H153.04V7.09002H157.188V23.0426ZM152.327 2.58952C152.327 1.85559 152.573 1.24283 153.068 0.747776C153.567 0.249259 154.183 0 154.917 0C155.626 0 156.236 0.249259 156.745 0.747776C157.252 1.24283 157.506 1.85559 157.506 2.58952C157.506 3.31999 157.252 3.93275 156.745 4.43127C156.236 4.92978 155.626 5.17904 154.917 5.17904C154.183 5.17904 153.567 4.92978 153.068 4.43127C152.573 3.93275 152.327 3.31999 152.327 2.58952Z" fill="#BF002A"/>
</g>
</g>
</g>
<g id="Group_34">
<g id="Group_35">
<g id="Group_36">
<path id="Vector_12" d="M160.164 23.0426V0.533203H164.242V23.0426H160.164Z" fill="#BF002A"/>
</g>
</g>
</g>
<g id="Group_37">
<g id="Group_38">
<g id="Group_39">
<path id="Vector_13" d="M171.65 23.0426H167.502V7.09002H171.65V23.0426ZM166.789 2.58952C166.789 1.85559 167.035 1.24283 167.53 0.747776C168.029 0.249259 168.645 0 169.379 0C170.089 0 170.698 0.249259 171.207 0.747776C171.714 1.24283 171.968 1.85559 171.968 2.58952C171.968 3.31999 171.714 3.93275 171.207 4.43127C170.698 4.92978 170.089 5.17904 169.379 5.17904C168.645 5.17904 168.029 4.92978 167.53 4.43127C167.035 3.93275 166.789 3.31999 166.789 2.58952Z" fill="#BF002A"/>
</g>
</g>
</g>
<g id="Group_40">
<g id="Group_41">
<g id="Group_42">
<path id="Vector_14" d="M174.626 23.0426V0.533203H178.773V7.55399C179.341 7.29088 179.795 7.09009 180.137 6.95161C180.478 6.80968 180.944 6.73697 181.536 6.73697C182.367 6.73697 183.13 6.8668 183.828 7.12471C184.524 7.38436 185.126 7.78594 185.635 8.32946C186.142 8.87471 186.537 9.57402 186.819 10.4274C187.104 11.2773 187.248 12.2934 187.248 13.4739V23.0426H183.101V13.5777C183.101 12.8213 183.006 12.1843 182.817 11.6668C182.626 11.1457 182.201 10.8844 181.536 10.8844C181.041 10.8844 180.617 10.9744 180.262 11.1544C179.905 11.331 179.622 11.5473 179.41 11.8052C179.197 12.0649 179.038 12.3488 178.933 12.6569C178.825 12.9615 178.773 13.2575 178.773 13.5431V23.0426H174.626Z" fill="#BF002A"/>
</g>
</g>
</g>
</g>
<g id="pindah">
<g id="Group_43">
<g id="Group_44">
<g id="Group_45">
<path id="Vector_15" d="M0.690186 1.12109H6.84804C8.19397 1.12109 9.36045 1.3375 10.3457 1.76855C11.331 2.20136 12.1403 2.75381 12.7737 3.42941C13.4106 4.1015 13.8856 4.84396 14.1952 5.66031C14.5084 6.47667 14.6668 7.28247 14.6668 8.07419C14.6668 9.10695 14.4803 10.0693 14.1108 10.9596C13.7396 11.8463 13.2241 12.6205 12.5625 13.282C11.901 13.9435 11.1075 14.4678 10.1838 14.8514C9.2584 15.2314 8.24324 15.4214 7.13658 15.4214H4.90568V24.0002H0.690186V1.12109ZM6.77767 11.2481C8.14647 11.2481 9.10885 10.9789 9.66306 10.4388C10.2155 9.89516 10.4935 9.11927 10.4935 8.10938C10.4935 7.79973 10.4196 7.476 10.2753 7.1382C10.1293 6.8004 9.89882 6.49426 9.58565 6.21628C9.276 5.94006 8.87837 5.72013 8.3963 5.55475C7.91775 5.38585 7.34243 5.3014 6.6721 5.3014H4.90568V11.2481H6.77767Z" fill="#904A4A"/>
</g>
</g>
</g>
<g id="Group_46">
<g id="Group_47">
<g id="Group_48">
<path id="Vector_16" d="M20.9396 24.0001H16.7241V7.78555H20.9396V24.0001ZM15.9993 3.21114C15.9993 2.46516 16.2491 1.84234 16.7523 1.33916C17.259 0.832453 17.8853 0.579102 18.6313 0.579102C19.3527 0.579102 19.972 0.832453 20.4892 1.33916C21.0047 1.84234 21.2634 2.46516 21.2634 3.21114C21.2634 3.95361 21.0047 4.57643 20.4892 5.08313C19.972 5.58984 19.3527 5.84319 18.6313 5.84319C17.8853 5.84319 17.259 5.58984 16.7523 5.08313C16.2491 4.57643 15.9993 3.95361 15.9993 3.21114Z" fill="#904A4A"/>
</g>
</g>
</g>
<g id="Group_49">
<g id="Group_50">
<g id="Group_51">
<path id="Vector_17" d="M31.4244 7.27832C31.903 7.27832 32.3041 7.30471 32.6279 7.35573C32.9516 7.40324 33.2437 7.47537 33.5076 7.5739C33.775 7.6689 34.0354 7.80614 34.2887 7.98911C34.5421 8.16857 34.8341 8.37618 35.1684 8.61545C35.552 8.92511 35.9144 9.31569 36.2522 9.78369C36.59 10.2534 36.8821 10.7654 37.1319 11.3179C37.3853 11.8721 37.577 12.4368 37.709 13.0139C37.8392 13.5875 37.906 14.1382 37.906 14.6677V23.9995H33.7257V14.7381C33.7257 14.3774 33.6765 14.0062 33.5779 13.6262C33.4829 13.2426 33.3404 12.8872 33.1486 12.5635C32.9604 12.2363 32.6982 11.9706 32.3604 11.7683C32.0226 11.5624 31.625 11.4586 31.1711 11.4586C30.6925 11.4586 30.3143 11.5976 30.0381 11.8738C29.7601 12.1518 29.5542 12.5002 29.4187 12.9224C29.2868 13.3412 29.2023 13.7951 29.1654 14.2877C29.132 14.7803 29.1161 15.2431 29.1161 15.6741V23.9995H24.8655V13.4432C24.8655 13.035 24.7916 12.5741 24.6473 12.0568C24.5013 11.5413 24.3341 11.0417 24.1476 10.5578L23.5283 9.00956L27.5327 7.71465L27.962 9.07993C28.5391 8.62601 29.0739 8.21256 29.5665 7.84132C30.0592 7.46657 30.6785 7.27832 31.4244 7.27832Z" fill="#904A4A"/>
</g>
</g>
</g>
<g id="Group_52">
<g id="Group_53">
<g id="Group_54">
<path id="Vector_18" d="M39.6335 15.8225C39.6335 14.693 39.7901 13.6339 40.1051 12.6486C40.4182 11.6633 40.9038 10.8118 41.5618 10.094C42.2234 9.37262 43.0573 8.8061 44.0672 8.39792C45.0753 7.98974 46.2875 7.78565 47.7056 7.78565H48.4657V1.12109H52.6812V24.0002H47.7056C46.2172 24.0002 44.9627 23.7503 43.9405 23.2472C42.9218 22.7404 42.0932 22.0912 41.4563 21.2978C40.8176 20.506 40.3531 19.6228 40.0628 18.6516C39.7761 17.6769 39.6335 16.7339 39.6335 15.8225ZM48.4657 19.7847V12.0011H47.7056C46.5268 12.0011 45.5891 12.2862 44.8906 12.8527C44.1956 13.4157 43.849 14.4062 43.849 15.8225C43.849 17.1174 44.1956 18.1027 44.8906 18.7783C45.5891 19.4504 46.5268 19.7847 47.7056 19.7847H48.4657Z" fill="#904A4A"/>
</g>
</g>
</g>
<g id="Group_55">
<g id="Group_56">
<g id="Group_57">
<path id="Vector_19" d="M55.1985 10.0934C55.897 9.51636 56.5286 9.04308 57.0916 8.67185C57.6546 8.2971 58.2 7.99624 58.7313 7.77104C59.2609 7.54232 59.7958 7.38398 60.3359 7.29953C60.8743 7.21508 61.483 7.17285 62.1586 7.17285C62.9222 7.17285 63.6242 7.34175 64.2629 7.67956C64.8997 8.01384 65.4469 8.48008 65.9026 9.08003C66.3565 9.68174 66.7119 10.3855 66.9653 11.1913C67.2186 11.9936 67.3453 12.8768 67.3453 13.8374V23.9996H61.0045C60.642 23.9996 60.1494 23.9539 59.5266 23.8589C58.902 23.7604 58.2827 23.5316 57.6687 23.1692C57.0582 22.8085 56.5303 22.2614 56.0852 21.5295C55.6383 20.7975 55.4167 19.7965 55.4167 18.5244C55.4167 17.4178 55.6788 16.517 56.2049 15.822C56.7344 15.1235 57.3485 14.5464 58.0487 14.0908C58.6258 13.7072 59.1835 13.4785 59.7236 13.4081C60.262 13.3342 60.6895 13.2955 61.0045 13.2955H62.982C62.8131 12.5319 62.5844 12.0411 62.2994 11.8247C62.0126 11.6047 61.666 11.4939 61.2578 11.4939C60.8725 11.4939 60.408 11.6329 59.8644 11.9091C59.3243 12.1871 58.6574 12.6745 57.8657 13.3729L55.1985 10.0934ZM63.0594 19.7841V17.511H61.0045C60.7881 17.511 60.5048 17.5849 60.1529 17.7292C59.8046 17.8752 59.6321 18.1761 59.6321 18.63C59.6321 18.8693 59.6779 19.0628 59.7729 19.2071C59.8714 19.3531 59.9928 19.4675 60.1388 19.5519C60.2831 19.6364 60.4344 19.6979 60.5892 19.7349C60.7441 19.7683 60.8813 19.7841 61.0045 19.7841H63.0594Z" fill="#904A4A"/>
</g>
</g>
</g>
<g id="Group_58">
<g id="Group_59">
<g id="Group_60">
<path id="Vector_20" d="M70.1897 24.0002V1.12109H74.4052V8.25717C74.9823 7.98974 75.4432 7.78565 75.7916 7.6449C76.1382 7.50063 76.6115 7.42674 77.2132 7.42674C78.0577 7.42674 78.8336 7.55869 79.5426 7.82084C80.2499 8.08475 80.8621 8.49293 81.3794 9.04538C81.8949 9.59958 82.296 10.3104 82.5828 11.1778C82.8731 12.0416 83.0192 13.0744 83.0192 14.2743V24.0002H78.8037V14.3798C78.8037 13.611 78.7069 12.9635 78.5151 12.4375C78.3216 11.9079 77.8888 11.6422 77.2132 11.6422C76.71 11.6422 76.2789 11.7337 75.9183 11.9167C75.5558 12.0962 75.2673 12.3161 75.0526 12.5782C74.8362 12.8421 74.6744 13.1307 74.5671 13.4438C74.458 13.7535 74.4052 14.0544 74.4052 14.3447V24.0002H70.1897Z" fill="#904A4A"/>
</g>
</g>
</g>
<g id="Group_61">
<g id="Group_62">
<g id="Group_63">
<path id="Vector_21" d="M0 0.541992H6.15786C7.50379 0.541992 8.67026 0.758397 9.65552 1.18945C10.6408 1.62226 11.4501 2.1747 12.0835 2.85031C12.7204 3.52239 13.1954 4.26486 13.5051 5.08121C13.8182 5.89757 13.9766 6.70337 13.9766 7.49509C13.9766 8.52785 13.7901 9.49024 13.4206 10.3805C13.0494 11.2672 12.5339 12.0413 11.8723 12.7029C11.2108 13.3644 10.4173 13.8887 9.49365 14.2723C8.56822 14.6523 7.55305 14.8423 6.44639 14.8423H4.21549V23.4211H0V0.541992ZM6.08748 10.669C7.45628 10.669 8.41867 10.3998 8.97288 9.85971C9.52532 9.31606 9.80331 8.54017 9.80331 7.53028C9.80331 7.22063 9.72941 6.8969 9.58514 6.5591C9.43911 6.2213 9.20863 5.91516 8.89546 5.63718C8.58581 5.36095 8.18819 5.14103 7.70612 4.97565C7.22756 4.80675 6.65224 4.7223 5.98192 4.7223H4.21549V10.669H6.08748Z" fill="#BF002A"/>
</g>
</g>
</g>
<g id="Group_64">
<g id="Group_65">
<g id="Group_66">
<path id="Vector_22" d="M20.2497 23.421H16.0342V7.20645H20.2497V23.421ZM15.3093 2.63204C15.3093 1.88606 15.5592 1.26324 16.0623 0.760055C16.569 0.253352 17.1954 0 17.9414 0C18.6627 0 19.282 0.253352 19.7993 0.760055C20.3148 1.26324 20.5734 1.88606 20.5734 2.63204C20.5734 3.37451 20.3148 3.99733 19.7993 4.50403C19.282 5.01074 18.6627 5.26409 17.9414 5.26409C17.1954 5.26409 16.569 5.01074 16.0623 4.50403C15.5592 3.99733 15.3093 3.37451 15.3093 2.63204Z" fill="#BF002A"/>
</g>
</g>
</g>
<g id="Group_67">
<g id="Group_68">
<g id="Group_69">
<path id="Vector_23" d="M30.7345 6.7002C31.2131 6.7002 31.6142 6.72659 31.9379 6.77761C32.2617 6.82511 32.5537 6.89725 32.8176 6.99577C33.085 7.09078 33.3454 7.22801 33.5988 7.41099C33.8521 7.59045 34.1442 7.79805 34.4785 8.03733C34.862 8.34698 35.2245 8.73757 35.5623 9.20556C35.9001 9.67532 36.1921 10.1873 36.442 10.7397C36.6953 11.294 36.8871 11.8587 37.019 12.4358C37.1492 13.0094 37.2161 13.56 37.2161 14.0896V23.4214H33.0358V14.16C33.0358 13.7993 32.9865 13.4281 32.888 13.0481C32.793 12.6645 32.6505 12.3091 32.4587 11.9854C32.2705 11.6581 32.0083 11.3925 31.6705 11.1902C31.3327 10.9843 30.9351 10.8805 30.4812 10.8805C30.0026 10.8805 29.6243 11.0195 29.3481 11.2957C29.0701 11.5737 28.8643 11.9221 28.7288 12.3443C28.5969 12.763 28.5124 13.217 28.4755 13.7096C28.442 14.2022 28.4262 14.6649 28.4262 15.096V23.4214H24.1755V12.8651C24.1755 12.4569 24.1016 11.996 23.9573 11.4787C23.8113 10.9632 23.6442 10.4635 23.4577 9.97969L22.8384 8.43143L26.8427 7.13652L27.272 8.50181C27.8491 8.04789 28.384 7.63443 28.8766 7.2632C29.3692 6.88845 29.9885 6.7002 30.7345 6.7002Z" fill="#BF002A"/>
</g>
</g>
</g>
<g id="Group_70">
<g id="Group_71">
<g id="Group_72">
<path id="Vector_24" d="M38.9434 15.2434C38.9434 14.1139 39.0999 13.0548 39.4149 12.0695C39.728 11.0842 40.2136 10.2327 40.8716 9.51487C41.5332 8.79352 42.3671 8.227 43.377 7.81882C44.3851 7.41064 45.5974 7.20655 47.0154 7.20655H47.7755V0.541992H51.991V23.4211H47.0154C45.527 23.4211 44.2725 23.1712 43.2503 22.6681C42.2317 22.1613 41.403 21.5121 40.7661 20.7186C40.1274 19.9269 39.6629 19.0437 39.3726 18.0725C39.0859 17.0978 38.9434 16.1548 38.9434 15.2434ZM47.7755 19.2056V11.422H47.0154C45.8366 11.422 44.8989 11.7071 44.2004 12.2736C43.5055 12.8366 43.1589 13.8271 43.1589 15.2434C43.1589 16.5383 43.5055 17.5236 44.2004 18.1992C44.8989 18.8713 45.8366 19.2056 47.0154 19.2056H47.7755Z" fill="#BF002A"/>
</g>
</g>
</g>
<g id="Group_73">
<g id="Group_74">
<g id="Group_75">
<path id="Vector_25" d="M54.5083 9.51433C55.2068 8.93725 55.8384 8.46398 56.4014 8.09275C56.9644 7.718 57.5098 7.41714 58.0412 7.19194C58.5707 6.96322 59.1056 6.80488 59.6457 6.72043C60.1841 6.63598 60.7928 6.59375 61.4684 6.59375C62.232 6.59375 62.934 6.76265 63.5727 7.10045C64.2096 7.43474 64.7567 7.90097 65.2124 8.50093C65.6663 9.10264 66.0217 9.80639 66.2751 10.6122C66.5284 11.4145 66.6551 12.2977 66.6551 13.2583V23.4205H60.3143C59.9518 23.4205 59.4592 23.3748 58.8364 23.2798C58.2118 23.1813 57.5925 22.9525 56.9785 22.5901C56.368 22.2294 55.8402 21.6823 55.395 20.9504C54.9481 20.2184 54.7265 19.2174 54.7265 17.9453C54.7265 16.8387 54.9886 15.9379 55.5147 15.2429C56.0442 14.5444 56.6583 13.9673 57.3585 13.5117C57.9356 13.1281 58.4933 12.8994 59.0334 12.829C59.5718 12.7551 59.9993 12.7164 60.3143 12.7164H62.2918C62.1229 11.9528 61.8942 11.462 61.6092 11.2456C61.3224 11.0256 60.9758 10.9148 60.5676 10.9148C60.1823 10.9148 59.7178 11.0538 59.1742 11.33C58.6341 11.608 57.9673 12.0954 57.1755 12.7938L54.5083 9.51433ZM62.3692 19.205V16.9319H60.3143C60.0979 16.9319 59.8146 17.0058 59.4627 17.1501C59.1144 17.2961 58.942 17.597 58.942 18.0509C58.942 18.2902 58.9877 18.4837 59.0827 18.628C59.1812 18.774 59.3026 18.8883 59.4487 18.9728C59.5929 19.0573 59.7442 19.1188 59.8991 19.1558C60.0539 19.1892 60.1911 19.205 60.3143 19.205H62.3692Z" fill="#BF002A"/>
</g>
</g>
</g>
<g id="Group_76">
<g id="Group_77">
<g id="Group_78">
<path id="Vector_26" d="M69.4995 23.4211V0.541992H73.715V7.67807C74.2921 7.41064 74.753 7.20655 75.1014 7.0658C75.448 6.92153 75.9213 6.84764 76.523 6.84764C77.3675 6.84764 78.1434 6.97959 78.8524 7.24174C79.5597 7.50565 80.172 7.91383 80.6892 8.46627C81.2047 9.02048 81.6059 9.73127 81.8926 10.5987C82.1829 11.4625 82.329 12.4953 82.329 13.6952V23.4211H78.1135V13.8007C78.1135 13.0319 78.0167 12.3844 77.8249 11.8584C77.6314 11.3288 77.1986 11.0631 76.523 11.0631C76.0198 11.0631 75.5888 11.1546 75.2281 11.3376C74.8656 11.5171 74.5771 11.737 74.3625 11.9991C74.1461 12.263 73.9842 12.5516 73.8769 12.8647C73.7678 13.1744 73.715 13.4753 73.715 13.7655V23.4211H69.4995Z" fill="#BF002A"/>
</g>
</g>
</g>
</g>
</g>
</svg>
